HIERARCHY
ROOT hip
{
	OFFSET 0.000000 0.000000 0.000000
	CHANNELS 6 Xposition Yposition Zposition Xrotation Zrotation Yrotation 
	JOINT abdomen
	{
		OFFSET 0.000000 3.422050 0.000000
		CHANNELS 3 Xrotation Zrotation Yrotation 
		JOINT chest
		{
			OFFSET 0.000000 8.486693 -0.684411
			CHANNELS 3 Xrotation Zrotation Yrotation 
			JOINT neck
			{
				OFFSET 0.000000 10.266162 -0.273764
				CHANNELS 3 Xrotation Zrotation Yrotation 
				JOINT head
				{
					OFFSET 0.000000 3.148285 0.000000
					CHANNELS 3 Xrotation Zrotation Yrotation 
					End Site
					{
						OFFSET 0.000000 3.148289 0.000000
					}
				}
			}
			JOINT lCollar
			{
				OFFSET 3.422053 6.707223 -0.821293
				CHANNELS 3 Yrotation Zrotation Xrotation 
				JOINT lShldr
				{
					OFFSET 3.285171 0.000000 0.000000
					CHANNELS 3 Zrotation Yrotation Xrotation 
					JOINT lForeArm
					{
						OFFSET 10.129278 0.000000 0.000000
						CHANNELS 3 Yrotation Zrotation Xrotation 
						JOINT lHand
						{
							OFFSET 8.486692 0.000000 0.000000
							CHANNELS 3 Zrotation Yrotation Xrotation 
							End Site
							{
								OFFSET 4.106464 0.000000 0.000000
							}
						}
					}
				}
			}
			JOINT rCollar
			{
				OFFSET -3.558935 6.707223 -0.821293
				CHANNELS 3 Yrotation Zrotation Xrotation 
				JOINT rShldr
				{
					OFFSET -3.148289 0.000000 0.000000
					CHANNELS 3 Zrotation Yrotation Xrotation 
					JOINT rForeArm
					{
						OFFSET -10.266159 0.000000 0.000000
						CHANNELS 3 Yrotation Zrotation Xrotation 
						JOINT rHand
						{
							OFFSET -8.349810 0.000000 0.000000
							CHANNELS 3 Zrotation Yrotation Xrotation 
							End Site
							{
								OFFSET -4.106464 0.000000 0.000000
							}
						}
					}
				}
			}
		}
	}
	JOINT lThigh
	{
		OFFSET 5.338403 -1.642589 1.368821
		CHANNELS 3 Xrotation Zrotation Yrotation 
		JOINT lShin
		{
			OFFSET -2.053232 -20.121670 0.000000
			CHANNELS 3 Xrotation Zrotation Yrotation 
			JOINT lFoot
			{
				OFFSET 0.000000 -19.300380 -1.231939
				CHANNELS 3 Xrotation Yrotation Zrotation 
				End Site
				{
					OFFSET 0.000000 -2.463878 4.653993
				}
			}
		}
	}
	JOINT rThigh
	{
		OFFSET -5.338403 -1.642589 1.368821
		CHANNELS 3 Xrotation Zrotation Yrotation 
		JOINT rShin
		{
			OFFSET 2.053232 -20.121670 0.000000
			CHANNELS 3 Xrotation Zrotation Yrotation 
			JOINT rFoot
			{
				OFFSET 0.000000 -19.300380 -1.231939
				CHANNELS 3 Xrotation Yrotation Zrotation 
				End Site
				{
					OFFSET 0.000000 -2.463878 4.653993
				}
			}
		}
	}
}
MOTION
Frames: 18
Frame Time: 0.033315
0.000000 43.528500 0.000000 0.000000 0.000000 0.000000 0.000000 0.000000 0.000000 0.000000 0.000000 0.000000 0.000000 0.000000 0.000000 0.000000 0.000000 0.000000 0.000000 0.000000 0.000000 0.000000 0.000000 0.000000 0.000000 0.000000 0.000000 0.000000 0.000000 0.000000 0.000000 0.000000 0.000000 0.000000 0.000000 0.000000 0.000000 0.000000 0.000000 0.000000 0.000000 0.000000 0.000000 0.000000 0.000000 0.000000 0.000000 0.000000 0.000000 0.000000 0.000000 0.000000 0.000000 0.000000 0.000000 0.000000 0.000000 0.000000 0.000000 0.000000 
1.360692 4.254616 9.933361 -0.027859 86.000122 89.973763 -0.344328 -0.723901 -0.576606 -0.439931 -0.625970 -0.450480 0.000000 0.000000 0.000000 0.000000 0.000000 17.998348 0.270927 -8.009708 -0.010830 22.995464 -4.006135 -0.002841 -82.954788 -15.235850 -46.010075 -19.002018 -0.003718 -17.001503 -0.002182 7.999156 -0.194408 71.736679 3.998933 18.547716 115.759056 -9.993315 -0.240229 7.136974 0.000000 0.000000 -26.152355 10.975475 -0.001708 57.222641 -1.972635 -0.090052 8.884896 0.934340 2.654958 -8.199590 -24.466873 -0.000354 15.526862 2.338054 0.158176 27.979666 -0.075851 -2.177883 
1.360692 4.254616 9.933361 -0.027859 86.000122 89.973763 -0.344328 -0.723901 -0.576606 -0.439931 -0.625970 -0.450480 0.000000 0.000000 0.000000 0.230300 -0.000004 17.998360 0.270927 -8.009708 -0.010830 22.995464 -4.006135 -0.002841 -82.954788 -15.235850 -46.010075 -19.002018 -0.003718 -17.001503 -0.002182 7.999156 -0.194408 71.736679 3.998933 18.547716 115.493881 -10.036729 -0.248006 7.136692 0.000000 0.000000 -26.152355 10.975475 -0.001708 57.222645 -1.972635 -0.090052 8.884896 0.934340 2.654958 -8.199494 -24.466881 -0.000360 15.526678 2.338053 0.158179 27.979666 -0.075851 -2.177883 
1.360692 4.254616 9.933361 -0.027859 86.000122 89.973763 -0.344328 -0.723901 -0.576606 -0.439931 -0.625970 -0.450480 0.000000 0.000000 0.000000 0.460725 -0.000008 17.998371 0.270927 -8.009709 -0.010830 22.995464 -4.006135 -0.002841 -82.954788 -15.235850 -46.010075 -19.002018 -0.003718 -17.001503 -0.002182 7.999157 -0.194408 71.736679 3.998934 18.547716 115.228081 -10.080211 -0.256006 7.136412 0.000000 0.000000 -26.152357 10.975476 -0.001709 57.222641 -1.972635 -0.090052 8.884897 0.934340 2.654958 -8.199401 -24.466885 -0.000365 15.526494 2.338053 0.158182 27.979668 -0.075851 -2.177883 
1.360692 4.254616 9.933361 -0.027906 86.000076 89.973663 -0.344328 -0.723900 -0.576606 -0.439931 -0.625970 -0.450480 0.000000 0.000000 0.000000 0.691272 -0.000013 17.998383 0.270927 -8.009707 -0.010830 22.995462 -4.006135 -0.002841 -82.954788 -15.235846 -46.010067 -19.002018 -0.003718 -17.001503 -0.002182 7.999156 -0.194408 71.736679 3.998933 18.547716 114.961617 -10.123755 -0.264232 7.136129 0.000000 0.000000 -26.152355 10.975475 -0.001709 57.222641 -1.972635 -0.090052 8.884896 0.934340 2.654958 -8.199305 -24.466890 -0.000371 15.526309 2.338052 0.158186 27.979664 -0.075851 -2.177883 
1.360692 4.254616 9.933361 -0.027859 86.000122 89.973763 -0.344328 -0.723901 -0.576606 -0.439931 -0.625970 -0.450480 0.000000 0.000000 0.000000 0.921939 -0.000017 17.998388 0.270927 -8.009707 -0.010830 22.995464 -4.006135 -0.002841 -82.954788 -15.235848 -46.010071 -19.002018 -0.003718 -17.001503 -0.002182 7.999156 -0.194408 71.736679 3.998932 18.547716 114.694504 -10.167361 -0.272684 7.135848 0.000000 0.000000 -26.152355 10.975475 -0.001708 57.222637 -1.972635 -0.090052 8.884894 0.934340 2.654957 -8.199210 -24.466898 -0.000377 15.526127 2.338051 0.158189 27.979666 -0.075851 -2.177883 
1.360692 4.254616 9.933361 -0.027859 86.000122 89.973763 -0.344328 -0.723901 -0.576606 -0.439931 -0.625970 -0.450480 0.000000 0.000000 0.000000 1.152725 -0.000021 17.998402 0.270927 -8.009708 -0.010830 22.995464 -4.006135 -0.002841 -82.954788 -15.235850 -46.010075 -19.002018 -0.003718 -17.001503 -0.002182 7.999155 -0.194408 71.736679 3.998933 18.547716 114.426727 -10.211028 -0.281364 7.135567 0.000000 0.000000 -26.152353 10.975475 -0.001708 57.222641 -1.972635 -0.090052 8.884896 0.934340 2.654958 -8.199115 -24.466904 -0.000383 15.525941 2.338050 0.158192 27.979666 -0.075851 -2.177883 
1.360692 4.254616 9.933361 -0.027834 86.000153 89.973808 -0.344328 -0.723901 -0.576606 -0.439931 -0.625970 -0.450480 0.000000 0.000000 0.000000 1.383629 -0.000026 17.998411 0.270927 -8.009708 -0.010830 22.995466 -4.006135 -0.002841 -82.954788 -15.235850 -46.010075 -19.002018 -0.003718 -17.001503 -0.002182 7.999157 -0.194408 71.736679 3.998933 18.547716 114.158310 -10.254752 -0.290272 7.135285 0.000000 0.000000 -26.152355 10.975475 -0.001708 57.222641 -1.972635 -0.090052 8.884896 0.934340 2.654958 -8.199021 -24.466911 -0.000388 15.525756 2.338050 0.158195 27.979666 -0.075851 -2.177883 
1.360692 4.254616 9.933361 -0.027881 86.000198 89.973808 -0.344328 -0.723901 -0.576606 -0.439931 -0.625970 -0.450480 0.000000 0.000000 0.000000 1.614647 -0.000030 17.998421 0.270927 -8.009709 -0.010830 22.995466 -4.006135 -0.002841 -82.954788 -15.235850 -46.010075 -19.002018 -0.003718 -17.001503 -0.002182 7.999157 -0.194408 71.736679 3.998933 18.547716 113.889221 -10.298534 -0.299411 7.135004 0.000000 0.000000 -26.152357 10.975475 -0.001708 57.222641 -1.972635 -0.090052 8.884896 0.934340 2.654958 -8.198927 -24.466917 -0.000394 15.525572 2.338049 0.158198 27.979666 -0.075851 -2.177883 
1.360692 4.254616 9.933361 -0.027884 86.000092 89.973724 -0.344328 -0.723900 -0.576606 -0.439931 -0.625970 -0.450480 0.000000 0.000000 0.000000 1.845780 -0.000035 17.998434 0.270927 -8.009708 -0.010830 22.995462 -4.006135 -0.002841 -82.954781 -15.235852 -46.010071 -19.002018 -0.003718 -17.001501 -0.002182 7.999156 -0.194408 71.736679 3.998932 18.547716 113.619492 -10.342375 -0.308782 7.134722 0.000000 0.000000 -26.152353 10.975475 -0.001708 57.222641 -1.972635 -0.090052 8.884896 0.934340 2.654958 -8.198831 -24.466923 -0.000400 15.525386 2.338048 0.158202 27.979662 -0.075851 -2.177883 
1.360692 4.254616 9.933361 -0.027884 86.000092 89.973724 -0.344328 -0.723900 -0.576606 -0.439931 -0.625970 -0.450480 0.000000 0.000000 0.000000 2.077023 -0.000039 17.998440 0.270927 -8.009707 -0.010830 22.995464 -4.006135 -0.002841 -82.954788 -15.235850 -46.010075 -19.002018 -0.003718 -17.001503 -0.002182 7.999156 -0.194408 71.736679 3.998933 18.547716 113.349091 -10.386266 -0.318385 7.134441 0.000000 0.000000 -26.152355 10.975475 -0.001708 57.222641 -1.972635 -0.090052 8.884896 0.934340 2.654958 -8.198735 -24.466927 -0.000405 15.525205 2.338048 0.158205 27.979664 -0.075851 -2.177883 
1.360692 4.254616 9.933361 -0.027906 86.000076 89.973663 -0.344328 -0.723901 -0.576606 -0.439931 -0.625970 -0.450480 0.000000 0.000000 0.000000 2.308377 -0.000044 17.998453 0.270927 -8.009708 -0.010830 22.995464 -4.006135 -0.002841 -82.954788 -15.235850 -46.010075 -19.002018 -0.003718 -17.001503 -0.002182 7.999156 -0.194408 71.736679 3.998933 18.547716 113.078072 -10.430215 -0.328222 7.134159 0.000000 0.000000 -26.152353 10.975474 -0.001709 57.222641 -1.972635 -0.090052 8.884895 0.934340 2.654958 -8.198642 -24.466934 -0.000411 15.525021 2.338047 0.158208 27.979666 -0.075851 -2.177883 
1.360692 4.254616 9.933361 -0.027906 86.000168 89.973763 -0.344328 -0.723901 -0.576606 -0.439931 -0.625970 -0.450480 0.000000 0.000000 0.000000 2.539839 -0.000048 17.998463 0.270927 -8.009708 -0.010830 22.995464 -4.006135 -0.002841 -82.954788 -15.235850 -46.010075 -19.002018 -0.003718 -17.001503 -0.002182 7.999156 -0.194408 71.736679 3.998933 18.547716 112.806381 -10.474213 -0.338295 7.133878 0.000000 0.000000 -26.152355 10.975475 -0.001708 57.222641 -1.972635 -0.090052 8.884896 0.934340 2.654958 -8.198547 -24.466942 -0.000417 15.524836 2.338046 0.158211 27.979666 -0.075851 -2.177883 
1.360692 4.254616 9.933361 -0.027859 86.000122 89.973763 -0.344328 -0.723901 -0.576606 -0.439931 -0.625970 -0.450480 0.000000 0.000000 0.000000 2.771406 -0.000053 17.998470 0.270927 -8.009708 -0.010830 22.995466 -4.006135 -0.002841 -82.954796 -15.235852 -46.010078 -19.002020 -0.003718 -17.001503 -0.002182 7.999157 -0.194408 71.736679 3.998934 18.547716 112.534035 -10.518264 -0.348605 7.133597 0.000000 0.000000 -26.152357 10.975476 -0.001709 57.222641 -1.972635 -0.090052 8.884896 0.934340 2.654958 -8.198452 -24.466949 -0.000422 15.524652 2.338046 0.158214 27.979666 -0.075852 -2.177883 
1.360692 4.254616 9.933361 -0.027884 86.000153 89.973763 -0.344328 -0.723901 -0.576606 -0.439931 -0.625970 -0.450480 0.000000 0.000000 0.000000 3.003079 -0.000058 17.998482 0.270927 -8.009710 -0.010830 22.995466 -4.006135 -0.002841 -82.954803 -15.235848 -46.010075 -19.002020 -0.003718 -17.001503 -0.002182 7.999156 -0.194408 71.736679 3.998933 18.547716 112.261055 -10.562364 -0.359153 7.133316 0.000000 0.000000 -26.152357 10.975476 -0.001709 57.222645 -1.972635 -0.090052 8.884897 0.934340 2.654958 -8.198359 -24.466953 -0.000428 15.524467 2.338045 0.158218 27.979668 -0.075851 -2.177883 
1.360692 4.254616 9.933361 -0.027859 86.000122 89.973763 -0.344328 -0.723900 -0.576606 -0.439931 -0.625970 -0.450480 0.000000 0.000000 0.000000 3.234854 -0.000062 17.998495 0.270927 -8.009708 -0.010830 22.995464 -4.006135 -0.002841 -82.954781 -15.235848 -46.010067 -19.002016 -0.003717 -17.001501 -0.002182 7.999156 -0.194408 71.736664 3.998933 18.547714 111.987396 -10.606505 -0.369939 7.133033 0.000000 0.000000 -26.152353 10.975473 -0.001708 57.222641 -1.972635 -0.090052 8.884896 0.934340 2.654958 -8.198262 -24.466959 -0.000434 15.524282 2.338044 0.158221 27.979664 -0.075851 -2.177883 
1.360692 4.254616 9.933361 -0.027812 86.000076 89.973763 -0.344328 -0.723901 -0.576606 -0.439931 -0.625970 -0.450480 0.000000 0.000000 0.000000 3.466729 -0.000067 17.998499 0.270927 -8.009707 -0.010830 22.995464 -4.006135 -0.002841 -82.954788 -15.235850 -46.010075 -19.002018 -0.003718 -17.001503 -0.002182 7.999155 -0.194408 71.736679 3.998933 18.547716 111.713104 -10.650700 -0.380966 7.132752 0.000000 0.000000 -26.152353 10.975475 -0.001708 57.222641 -1.972635 -0.090052 8.884896 0.934340 2.654958 -8.198168 -24.466967 -0.000440 15.524098 2.338044 0.158224 27.979664 -0.075851 -2.177883 
1.360692 4.254616 9.933361 -0.027859 86.000122 89.973763 -0.344328 -0.723901 -0.576606 -0.439931 -0.625970 -0.450480 0.000000 0.000000 0.000000 3.698704 -0.000072 17.998516 0.270927 -8.009708 -0.010830 22.995464 -4.006135 -0.002841 -82.954788 -15.235850 -46.010075 -19.002018 -0.003718 -17.001503 -0.002182 7.999156 -0.194408 71.736679 3.998933 18.547716 111.438164 -10.694933 -0.392234 7.132471 0.000000 0.000000 -26.152355 10.975475 -0.001708 57.222641 -1.972635 -0.090052 8.884896 0.934340 2.654958 -8.198073 -24.466970 -0.000445 15.523913 2.338043 0.158227 27.979666 -0.075851 -2.177883 
